HIERARCHY
ROOT Hips
{
  OFFSET 10.0579 99.5506 -6.07592
  CHANNELS 6 Xposition Yposition Zposition Zrotation Xrotation Yrotation
  JOINT ToSpine
  {
    OFFSET -0.0105055 1.38907 -7.13956
    CHANNELS 3 Zrotation Xrotation Yrotation
    JOINT Spine
    {
      OFFSET 0.0105055 10 1
      CHANNELS 3 Zrotation Xrotation Yrotation
      JOINT Spine1
      {
        OFFSET 0 12 1.60637
        CHANNELS 3 Zrotation Xrotation Yrotation
        JOINT Neck
        {
          OFFSET 0 27 2.26658
          CHANNELS 3 Zrotation Xrotation Yrotation
          JOINT Head
          {
            OFFSET 0 9 2.12705
            CHANNELS 3 Zrotation Xrotation Yrotation
            End Site
            {
              OFFSET 0 11 2
            }
          }
        }
        JOINT LeftShoulder
        {
          OFFSET 8 19.6109 2.86452
          CHANNELS 3 Zrotation Xrotation Yrotation
          JOINT LeftArm
          {
            OFFSET 12 1 0.681055
            CHANNELS 3 Zrotation Xrotation Yrotation
            JOINT LeftForeArm
            {
              OFFSET 19 0 -1.52608
              CHANNELS 3 Zrotation Xrotation Yrotation
              JOINT LeftHand
              {
                OFFSET 23 0 0
                CHANNELS 3 Zrotation Xrotation Yrotation
                End Site
                {
                  OFFSET 10 0 0
                }
              }
            }
          }
        }
        JOINT RightShoulder
        {
          OFFSET -8 19.6109 2.86452
          CHANNELS 3 Zrotation Xrotation Yrotation
          JOINT RightArm
          {
            OFFSET -12 1 0.681055
            CHANNELS 3 Zrotation Xrotation Yrotation
            JOINT RightForeArm
            {
              OFFSET -19 0 -1.52608
              CHANNELS 3 Zrotation Xrotation Yrotation
              JOINT RightHand
              {
                OFFSET -23 0 0
                CHANNELS 3 Zrotation Xrotation Yrotation
                End Site
                {
                  OFFSET -10 0 0
                }
              }
            }
          }
        }
      }
    }
  }
  JOINT LeftUpLeg
  {
    OFFSET 9 -7.17245 0
    CHANNELS 3 Zrotation Xrotation Yrotation
    JOINT LeftLeg
    {
      OFFSET 0 -44.1113 0
      CHANNELS 3 Zrotation Xrotation Yrotation
      JOINT LeftFoot
      {
        OFFSET 0 -36.1829 0
        CHANNELS 3 Zrotation Xrotation Yrotation
        JOINT LeftToeBase
        {
          OFFSET 0 -4.84184 13
          CHANNELS 3 Zrotation Xrotation Yrotation
          End Site
          {
            OFFSET 0 1 6
          }
        }
      }
    }
  }
  JOINT RightUpLeg
  {
    OFFSET -9 -7.17245 0
    CHANNELS 3 Zrotation Xrotation Yrotation
    JOINT RightLeg
    {
      OFFSET 0 -44.0551 0
      CHANNELS 3 Zrotation Xrotation Yrotation
      JOINT RightFoot
      {
        OFFSET 0 -36.1469 0
        CHANNELS 3 Zrotation Xrotation Yrotation
        JOINT RightToeBase
        {
          OFFSET 0 -4.92256 13
          CHANNELS 3 Zrotation Xrotation Yrotation
          End Site
          {
            OFFSET 0 1 6
          }
        }
      }
    }
  }
}
MOTION
Frames:	12
Frame Time:	0.0333333
10.0579 99.5506 -6.07592 -3.04024 -4.13391 -38.684 0 0 0 3.45868 4.63443 0.367143 -5.13503 2.86759 1.24599 7.00699 5.57373 1.83842 -3.10463 0.929369 4.9465 -31.0347 3.77684 -6.65818 -39.1795 29.5801 -14.5878 -5.83291 -12.2973 -6.4993 -8.10699 0.205079 -2.89332 26.7801 6.45119 15.9281 50.605 13.6525 2.25411 3.52648 -5.22071 12.2716 1.59634 0.0471537 3.38368 2.08695 4.76991 7.17743 -0.929809 7.69392 -12.7066 4.97426 -8.04764 0.350131 2.28743 2.77965 -9.43873 -2.12793 6.5421 -7.72137 -0.502527 5.28249 -0.0998728 -9.75472 -1.43169 -0.122176 4.38225 -16.4614 -2.71876 
10.0953 99.5218 -6.056 -3.1055 -4.10813 -38.7502 0 0 0 3.40613 4.51441 0.468631 -4.80394 3.10842 1.29537 6.59424 5.61632 1.76259 -3.0103 0.605914 4.70449 -31.3037 3.78402 -6.60494 -39.3545 28.49 -14.7828 -5.52761 -11.2775 -6.04462 -8.23964 0.214762 -2.98096 26.2152 6.21977 15.5524 50.8356 13.9976 2.65893 3.62961 -5.27177 12.1254 1.59019 0.0470723 3.3909 1.88338 4.69345 6.70327 -0.48509 7.66826 -12.7815 4.05954 -7.57827 0.268974 0.899515 -1.78711 -3.49633 -2.02944 6.5536 -7.61767 -0.590046 5.20592 -0.174909 -9.99649 -1.22753 -0.107361 4.45869 -16.7597 -2.68128 
10.0564 99.552 -6.05672 -3.11385 -4.16291 -38.649 0 0 0 3.051 4.08677 0.612554 -4.34832 3.70697 1.3329 6.26042 5.22036 1.7229 -2.6541 0.918263 4.45091 -31.3474 3.81733 -6.68175 -38.8954 29.0909 -15.4399 -5.75042 -11.2182 -5.65817 -8.56928 0.223254 -2.97921 25.9001 6.13182 15.462 51.0388 14.0363 2.76904 3.47598 -4.54931 12.147 0.045816 0.00125912 3.14842 2.11095 4.801 7.31934 -1.01429 7.65781 -12.4263 3.99651 -7.54981 0.263796 -0.747891 -0.48357 3.30481 -2.00994 6.69118 -7.57563 -0.636964 5.13616 -0.344077 -10.112 -1.66288 -0.147131 4.31755 -16.2337 -3.04128 
10.0559 99.5881 -6.05438 -3.06272 -4.25857 -38.7651 0 0 0 2.98811 3.98821 0.637958 -4.44205 3.86823 1.37775 6.25697 4.93386 1.756 -2.63516 1.10513 4.46445 -31.1835 3.78232 -6.63269 -39.0086 29.1924 -15.3942 -5.78168 -11.2427 -5.82055 -8.60257 0.238053 -3.16426 25.9873 6.11069 15.3492 50.9044 14.3295 2.93556 3.41586 -4.12587 12.0945 -0.0409382 -0.00107319 3.00333 2.0299 4.86801 7.27789 -1.08286 7.79579 -13.7298 1.82998 -9.40605 0.150562 -0.540825 2.21222 1.5456 -2.1083 6.75356 -7.59036 -0.737372 5.06131 -0.234773 -9.70818 -1.72548 -0.146544 4.24593 -15.9649 -3.27619 
10.0704 99.5772 -6.05015 -3.10766 -4.26782 -38.801 0 0 0 3.22781 4.05821 0.662473 -4.81207 3.72841 1.47864 6.75732 5.07208 1.60958 -3.06545 0.911497 4.59332 -30.7592 3.77879 -6.7385 -39.5036 28.9287 -15.3685 -5.66167 -10.8138 -5.49248 -8.64434 0.226294 -2.99345 26.3359 6.18253 15.3735 50.6711 14.3822 2.69604 3.40076 -4.22347 12.2461 -0.378243 -0.00964536 2.92149 2.00334 4.89531 7.28706 -1.0278 7.68494 -12.8526 2.78312 -8.71834 0.212196 0.2541 1.24919 -1.34212 -2.09583 6.77329 -7.5713 -0.72892 5.05931 -0.225036 -9.76575 -1.625 -0.1452 4.28307 -16.103 -3.13052 
10.1261 99.5443 -6.046 -3.31471 -3.97763 -38.7782 0 0 0 3.66815 3.99116 0.609254 -4.59979 3.65385 1.44899 6.34856 4.94778 1.74675 -2.55493 0.938086 4.46603 -31.0729 3.77932 -6.65449 -39.1201 29.3853 -15.3194 -5.73723 -11.2065 -5.79973 -8.60553 0.221566 -2.94419 26.1378 6.08282 15.1818 50.8266 14.7335 2.90569 3.738 -5.05239 12.041 0.577686 0.01672 3.31568 2.31582 5.49376 7.28612 -1.65864 6.38521 -14.4755 4.03437 -5.274 0.185887 -0.400158 -7.61042 5.12365 -1.73583 6.63657 -7.52194 -0.84704 5.06854 -0.343093 -9.10721 -1.81373 -0.144463 4.17359 -15.6299 -2.65526 
10.1024 99.5983 -6.04391 -3.15337 -4.30224 -38.8786 0 0 0 3.30361 4.15475 0.686957 -4.81444 3.52915 1.49772 6.31356 5.00249 1.72382 -2.38761 0.855997 4.39497 -30.9137 3.77053 -6.67514 -39.416 29.1693 -15.2194 -5.71149 -11.1717 -5.69828 -8.63788 0.204958 -2.71335 26.0637 6.06617 15.1721 50.934 14.7683 2.92325 3.82584 -5.26296 11.9102 0.756406 0.0217642 3.2962 2.04906 4.96316 7.30967 -1.06363 7.75367 -13.8288 2.01683 -9.54024 0.168316 -0.617626 3.20869 1.54715 -2.1066 6.81277 -7.56563 -0.828767 5.06849 -0.131028 -8.96603 -1.86477 -0.146217 4.0972 -15.3414 -2.91844 
10.0949 99.579 -6.04585 -3.27511 -4.29301 -38.9363 0 0 0 3.35596 4.11976 0.701992 -4.72561 3.63118 1.49944 6.29288 4.77283 1.66398 -2.32062 1.10545 4.3031 -31.0598 3.76506 -6.61986 -39.3256 29.1108 -15.2329 -5.66238 -10.9784 -5.67861 -8.53701 0.207716 -2.78245 26.198 6.09795 15.1945 50.8038 14.7333 2.78144 3.71909 -5.08959 12.1544 0.876261 0.0238793 3.18129 2.14284 5.11931 7.42268 -1.10926 7.58784 -12.9285 2.88397 -8.52076 0.214887 0.2579 -0.144125 -1.04462 -1.99195 6.89039 -7.50956 -0.794676 5.05953 -0.0979811 -9.48505 -1.74219 -0.151874 4.2273 -15.8686 -3.00301 
10.114 99.5853 -6.05726 -3.29223 -4.34756 -38.9336 0 0 0 3.24966 4.04984 0.713794 -4.59381 3.79214 1.48213 6.20951 4.69904 1.62815 -2.22173 1.05215 4.21177 -31.1142 3.77576 -6.63383 -39.0828 29.4775 -15.3459 -5.77294 -11.3937 -5.80089 -8.64993 0.212993 -2.81574 26.1263 6.08381 15.1911 50.8884 14.6264 2.7097 3.63641 -4.9575 12.3194 0.921724 0.0253022 3.36402 2.08438 5.10956 7.36528 -0.97833 7.6931 -11.9697 4.20624 -7.9195 0.29129 1.11445 -1.83144 -4.45158 -2.02783 6.93575 -7.53705 -0.837022 5.09376 -0.0317688 -8.9964 -1.91266 -0.15839 4.13826 -15.501 -2.83903 
10.1058 99.6139 -6.05807 -3.26513 -4.36647 -38.9714 0 0 0 3.13441 3.96796 0.710294 -4.50519 3.83549 1.43938 6.12035 4.71693 1.63851 -2.28887 1.02493 4.20831 -31.1331 3.77227 -6.6194 -39.1841 29.3054 -15.2959 -5.74355 -11.191 -5.73779 -8.72738 0.206876 -2.71055 26.0537 6.10876 15.3066 50.9591 14.5332 2.67384 3.64039 -4.99102 12.2525 0.893974 0.0261339 3.28696 2.14867 4.97138 7.46659 -1.07511 8.12897 -13.8506 1.18458 -10.7621 0.111584 -0.788004 6.03897 1.391 -2.04023 6.92809 -7.46383 -0.966839 5.09075 -0.25957 -8.26664 -2.19996 -0.159 3.97017 -14.8127 -2.37889 
10.1469 99.5716 -6.07599 -3.32271 -4.31337 -38.8934 0 0 0 3.06954 3.90113 0.669389 -4.22325 3.92294 1.34731 6.03963 4.54616 1.70173 -2.21295 1.17934 4.21852 -31.2068 3.77848 -6.61618 -39.0932 29.394 -15.313 -5.7875 -11.4437 -5.89099 -8.5579 0.223109 -2.98123 25.9625 6.09418 15.3128 50.9929 14.5012 2.76839 3.5665 -4.67247 12.1767 0.754424 0.026453 3.30163 2.14082 5.02935 7.40628 -1.03875 7.79981 -12.748 2.82472 -8.77266 0.216716 0.401602 0.111951 -1.70359 -1.94475 6.92692 -7.42507 -0.936398 5.02355 -0.19 -8.82775 -1.88433 -0.145463 4.15015 -15.5382 -2.67469 
10.1175 99.5915 -6.06175 -3.39623 -4.32668 -39.0054 0 0 0 3.0198 3.87685 0.6803 -4.1205 3.94608 1.33835 6.10959 4.84139 1.68154 -2.2753 0.7852 4.24822 -31.1254 3.78667 -6.65998 -39.3132 29.2321 -15.2186 -5.75264 -11.5474 -5.82708 -8.52601 0.227309 -3.04873 26.0485 6.12791 15.3675 50.9046 14.4387 2.60898 3.56498 -4.90845 12.3856 1.00452 0.0263536 3.14375 2.2423 5.16654 7.57622 -1.09914 7.68486 -11.6524 4.11526 -8.01325 0.288369 1.28366 -1.49244 -5.2424 -1.89982 7.02758 -7.43616 -0.983461 4.99487 -0.190209 -8.16092 -2.18668 -0.156013 3.95491 -14.7547 -2.4447 
